:FULLY-SPECIFIED
:FORCE-ALL-JOINTS-BE-3DOF
:DEGREES
510
root -5.10202 15.0366 -42.5504 366.231 -0.389147 345.624
lfemur -51.0532 32.1565 -20.6584
ltibia 71.8616 0 0
lfoot -18.438 23.1799 0
ltoes 1.28947 0 0
rfemur -23.2684 -19.9173 9.36925
rtibia 59.9923 0 0
rfoot 4.42244 -15.1351 0
rtoes 6.56227 0 0
lowerback 15.5077 1.29822 -4.48239
upperback -1.3764 1.23165 3.4034
thorax -10.4396 0.965293 5.99076
lowerneck 4.04658 -15.2619 -16.9138
upperneck 4.45159 -22.283 19.8292
head 4.85479 -11.2052 7.39276
lclavicle -1.58844e-14 -1.01895e-14 0
lhumerus 19.7539 -71.7394 74.9089
lradius 88.804 0 0
lwrist 23.7356 0 0
lhand -3.12136 36.988 0
lfingers 7.12502 0 0
lthumb 16.423 69.7899 0
rclavicle 1.24231e-14 -1.15878e-14 0
rhumerus 52.0672 40.1322 -29.8751
rradius 104.383 0 0
rwrist -25.2934 0 0
rhand -3.05894 -14.3489 0
rfingers 7.12502 0 0
rthumb 31.1783 -51.1826 0
511
root -5.19425 15.0364 -42.6301 366.197 -2.86245 345.908
lfemur -48.8706 31.0595 -19.7137
ltibia 71.5096 0 0
lfoot -17.8583 22.6684 0
ltoes -0.0355926 0 0
rfemur -22.3252 -20.8775 8.8468
rtibia 58.8036 0 0
rfoot 3.93744 -13.9692 0
rtoes 5.78875 0 0
lowerback 15.7849 1.38378 -4.65852
upperback -1.35258 1.29196 3.31163
thorax -10.5842 1.00449 5.97737
lowerneck 3.62346 -14.8781 -16.9079
upperneck 4.71013 -21.6766 19.2974
head 4.82227 -10.8852 7.27883
lclavicle -1.545e-14 -1.06902e-14 0
lhumerus 16.2803 -69.6528 75.8363
lradius 89.7638 0 0
lwrist 23.8064 0 0
lhand -3.11544 36.8418 0
lfingers 7.12502 0 0
lthumb 15.7242 70.288 0
rclavicle 9.98754e-15 -1.10206e-14 0
rhumerus 50.0261 40.868 -31.1121
rradius 102.281 0 0
rwrist -25.3268 0 0
rhand -4.18828 -14.2185 0
rfingers 7.12502 0 0
rthumb 31.0464 -51.2787 0
512
root -5.28031 15.026 -42.7058 366.203 -5.37375 346.2
lfemur -46.688 29.9625 -18.769
ltibia 71.1576 0 0
lfoot -17.2786 22.1569 0
ltoes -1.36066 0 0
rfemur -21.3819 -21.8378 8.32434
rtibia 57.6149 0 0
rfoot 3.45245 -12.8033 0
rtoes 5.01523 0 0
lowerback 16.0591 1.35909 -4.94483
upperback -1.45244 1.19516 3.33732
thorax -10.8503 0.987904 6.20118
lowerneck 3.45964 -14.2981 -17.0473
upperneck 4.87511 -20.8215 18.7612
head 4.69201 -10.4634 7.24165
lclavicle -1.50156e-14 -1.11908e-14 0
lhumerus 12.8067 -67.5661 76.7636
lradius 90.7237 0 0
lwrist 23.8772 0 0
lhand -3.10951 36.6956 0
lfingers 7.12502 0 0
lthumb 15.0253 70.7861 0
rclavicle 7.55195e-15 -1.04535e-14 0
rhumerus 47.985 41.6039 -32.3492
rradius 100.18 0 0
rwrist -25.3601 0 0
rhand -5.31761 -14.0881 0
rfingers 7.12502 0 0
rthumb 30.9145 -51.3748 0
513
root -5.35517 15.0095 -42.7729 366.165 -8.05792 346.579
lfemur -44.5054 28.8655 -17.8244
ltibia 70.8057 0 0
lfoot -16.6989 21.6455 0
ltoes -2.68572 0 0
rfemur -20.4387 -22.798 7.80188
rtibia 56.4261 0 0
rfoot 2.96746 -11.6374 0
rtoes 4.24171 0 0
lowerback 16.3042 1.33078 -5.25953
upperback -1.52314 1.08434 3.34054
thorax -11.0643 0.964142 6.42056
lowerneck 3.19546 -13.7049 -17.014
upperneck 5.0953 -19.9217 18.0706
head 4.5561 -10.0131 7.12486
lclavicle -1.45812e-14 -1.16915e-14 0
lhumerus 9.33309 -65.4795 77.691
lradius 91.6836 0 0
lwrist 23.948 0 0
lhand -3.10359 36.5494 0
lfingers 7.12502 0 0
lthumb 14.3264 71.2843 0
rclavicle 5.11637e-15 -9.88628e-15 0
rhumerus 45.9439 42.3397 -33.5863
rradius 98.0779 0 0
rwrist -25.3934 0 0
rhand -6.44694 -13.9578 0
rfingers 7.12502 0 0
rthumb 30.7826 -51.4709 0
514
root -5.42609 14.9983 -42.8445 366.215 -10.7374 346.962
lfemur -42.3228 27.7685 -16.8797
ltibia 70.4537 0 0
lfoot -16.1192 21.134 0
ltoes -4.01078 0 0
rfemur -21.8215 -22.7486 7.89142
rtibia 55.2374 0 0
rfoot 2.48247 -10.4714 0
rtoes 3.46819 0 0
lowerback 16.5944 1.19192 -5.7716
upperback -1.74182 0.792378 3.44599
thorax -11.4497 0.884557 6.92437
lowerneck 3.29212 -12.9447 -16.9808
upperneck 5.27516 -18.8312 17.3052
head 4.31436 -9.49026 7.0321
lclavicle -1.41468e-14 -1.21921e-14 0
lhumerus 5.85948 -63.3929 78.6183
lradius 92.6434 0 0
lwrist 24.0187 0 0
lhand -3.09767 36.4032 0
lfingers 7.12502 0 0
lthumb 13.6276 71.7824 0
rclavicle 2.68078e-15 -9.3191e-15 0
rhumerus 43.9028 43.0755 -34.8234
rradius 95.9763 0 0
rwrist -25.4268 0 0
rhand -7.57628 -13.8274 0
rfingers 7.12502 0 0
rthumb 30.6507 -51.567 0
515
root -5.47907 14.9983 -42.8936 366.113 -13.7357 347.368
lfemur -40.1402 26.6715 -15.935
ltibia 70.1017 0 0
lfoot -15.5395 20.6225 0
ltoes -5.33584 0 0
rfemur -23.2044 -22.6992 7.98095
rtibia 54.0487 0 0
rfoot 1.99748 -9.30552 0
rtoes 2.69467 0 0
lowerback 16.8515 0.99102 -6.35541
upperback -1.94281 0.408355 3.63152
thorax -11.7776 0.771397 7.59144
lowerneck 3.21698 -12.0248 -16.9869
upperneck 5.79366 -17.5198 16.3117
head 4.15619 -8.85127 6.86891
lclavicle -1.37125e-14 -1.26928e-14 0
lhumerus 2.38588 -61.3063 79.5457
lradius 93.6033 0 0
lwrist 24.0895 0 0
lhand -3.09175 36.257 0
lfingers 7.12502 0 0
lthumb 12.9287 72.2805 0
rclavicle 2.45191e-16 -8.75191e-15 0
rhumerus 41.8617 43.8113 -36.0605
rradius 93.8746 0 0
rwrist -25.4601 0 0
rhand -8.70561 -13.697 0
rfingers 7.12502 0 0
rthumb 30.5188 -51.6631 0
